<svg width="20" height="20" viewBox="0 0 20 20" fill="none" xmlns="http://www.w3.org/2000/svg"><path d="M11.5999 10C11.5999 9.11635 10.8836 8.40001 9.9999 8.40001C9.11625 8.40001 8.3999 9.11635 8.3999 10C8.3999 10.8837 9.11625 11.6 9.9999 11.6C10.8836 11.6 11.5999 10.8837 11.5999 10Z" fill="#227AE2"/><path d="M11.5999 17.2C11.5999 16.3164 10.8836 15.6 9.9999 15.6C9.11625 15.6 8.3999 16.3164 8.3999 17.2C8.3999 18.0837 9.11625 18.8 9.9999 18.8C10.8836 18.8 11.5999 18.0837 11.5999 17.2Z" fill="#227AE2"/><path d="M11.5999 2.80002C11.5999 1.91637 10.8836 1.20002 9.9999 1.20002C9.11625 1.20002 8.3999 1.91637 8.3999 2.80002C8.3999 3.68368 9.11625 4.40002 9.9999 4.40002C10.8836 4.40002 11.5999 3.68368 11.5999 2.80002Z" fill="#227AE2"/></svg>