<svg width="25" height="24" viewBox="0 0 25 24" fill="none" xmlns="http://www.w3.org/2000/svg"><path d="M14.4201 12C14.4201 10.9396 13.5605 10.08 12.5001 10.08C11.4397 10.08 10.5801 10.9396 10.5801 12C10.5801 13.0604 11.4397 13.92 12.5001 13.92C13.5605 13.92 14.4201 13.0604 14.4201 12Z" fill="#424242"/><path d="M14.4201 20.64C14.4201 19.5796 13.5605 18.72 12.5001 18.72C11.4397 18.72 10.5801 19.5796 10.5801 20.64C10.5801 21.7004 11.4397 22.56 12.5001 22.56C13.5605 22.56 14.4201 21.7004 14.4201 20.64Z" fill="#424242"/><path d="M14.4201 3.36C14.4201 2.29961 13.5605 1.44 12.5001 1.44C11.4397 1.44 10.5801 2.29961 10.5801 3.36C10.5801 4.42039 11.4397 5.28 12.5001 5.28C13.5605 5.28 14.4201 4.42039 14.4201 3.36Z" fill="#424242"/></svg>