<svg width="18" height="18" viewBox="0 0 18 18" xmlns="http://www.w3.org/2000/svg"><g fill="#333" fill-rule="evenodd"><path d="M12.449 12.45l-1.388-1.387a2.918 2.918 0 0 0-4.124-4.124L5.55 5.55A6.85 6.85 0 0 1 9 4.625 6.899 6.899 0 0 1 15.417 9a6.935 6.935 0 0 1-2.968 3.45zm-.955.46A6.899 6.899 0 0 1 2.584 9 6.933 6.933 0 0 1 4.71 6.125L6.355 7.77a2.918 2.918 0 0 0 3.875 3.875l1.264 1.264z" fill-rule="nonzero"/><path d="M10.242 10.235L7.765 7.758A1.744 1.744 0 0 1 9 7.25c.968 0 1.75.782 1.75 1.75 0 .482-.194.918-.508 1.235zm-.927.487a1.748 1.748 0 0 1-2.037-2.037l2.037 2.037z"/><path d="M3.07 8.487h12.417v1H3.07z"/></g></svg>