<svg width="18" height="18" viewBox="0 0 18 18" xmlns="http://www.w3.org/2000/svg" xmlns:xlink="http://www.w3.org/1999/xlink"><defs><path id="a" d="M4 0h2v3H4z"/><path id="b" d="M4 7h2v3H4z"/><path id="c" d="M0 4h3v2H0z"/><path id="d" d="M7 4h3v2H7z"/><path id="e" d="M4 0h2v3H4z"/><path id="f" d="M4 7h2v3H4z"/><path id="g" d="M0 4h3v2H0z"/><path id="h" d="M7 4h3v2H7z"/></defs><g fill="none" fill-rule="evenodd"><g transform="translate(3 4)"><use fill="#D8D8D8" xlink:href="#a"/><path stroke="#979797" d="M4.5.5h1v2h-1z"/></g><g transform="translate(3 4)"><use fill="#D8D8D8" xlink:href="#b"/><path stroke="#979797" d="M4.5 7.5h1v2h-1z"/></g><g transform="translate(3 4)"><use fill="#D8D8D8" xlink:href="#c"/><path stroke="#979797" d="M.5 4.5h2v1h-2z"/></g><g transform="translate(3 4)"><use fill="#D8D8D8" xlink:href="#d"/><path stroke="#979797" d="M7.5 4.5h2v1h-2z"/></g><g opacity=".714"><g transform="rotate(45 1.672 10.621)"><use fill="#D8D8D8" xlink:href="#e"/><path stroke="#979797" d="M4.5.5h1v2h-1z"/></g><g transform="rotate(45 1.672 10.621)"><use fill="#D8D8D8" xlink:href="#f"/><path stroke="#979797" d="M4.5 7.5h1v2h-1z"/></g><g transform="rotate(45 1.672 10.621)"><use fill="#D8D8D8" xlink:href="#g"/><path stroke="#979797" d="M.5 4.5h2v1h-2z"/></g><g transform="rotate(45 1.672 10.621)"><use fill="#D8D8D8" xlink:href="#h"/><path stroke="#979797" d="M7.5 4.5h2v1h-2z"/></g></g></g></svg>