<svg width="18" height="18" viewBox="0 0 18 18" xmlns="http://www.w3.org/2000/svg"><path d="M7.348 5.948c.161-.35.252-.735.252-1.148a2.8 2.8 0 1 0-5.6 0 2.8 2.8 0 0 0 2.8 2.8c.413 0 .798-.091 1.148-.252L7.6 9l-1.652 1.652A2.728 2.728 0 0 0 4.8 10.4a2.8 2.8 0 1 0 0 5.6 2.8 2.8 0 0 0 2.8-2.8c0-.413-.091-.798-.252-1.148L9 10.4l4.9 4.9H16v-.7L7.348 5.948zM4.8 6.2a1.4 1.4 0 1 1 0-2.8 1.4 1.4 0 0 1 0 2.8zm0 8.4a1.4 1.4 0 1 1 0-2.8 1.4 1.4 0 0 1 0 2.8zM9 9.35A.347.347 0 0 1 8.65 9c0-.196.154-.35.35-.35.196 0 .35.154.35.35 0 .196-.154.35-.35.35zm4.9-6.65L9.7 6.9l1.4 1.4L16 3.4v-.7h-2.1z" fill="#333"/></svg>