<svg width="48" height="48" viewBox="0 0 48 48" fill="none" xmlns="http://www.w3.org/2000/svg">
<path d="M23.0387 26.5L31.5002 31.5C31.6925 31.6924 32.0771 31.6924 32.4618 31.6924C32.8464 31.6924 33.0387 31.5 33.231 31.1154C33.4233 30.9231 33.4233 30.5385 33.4233 30.1539C33.4233 29.7693 33.231 29.577 32.8464 29.3847L24.9618 24.577V15.3462C24.9618 14.7693 24.3848 14.1924 23.8079 14.1924H23.6156C23.0387 14.1924 22.4618 14.7693 22.4618 15.3462V24.9616C22.2695 25.5385 22.4618 26.1154 23.0387 26.5Z" fill="#424242"/>
<path d="M24 4C13.0385 4 4 13.0385 4 24C4 34.9615 12.8462 44 24 44C34.9615 44 44 34.9615 44 24C44 13.0385 34.9615 4 24 4ZM24 40.3462C14.9615 40.3462 7.65385 33.0385 7.65385 24C7.65385 14.9615 14.9615 7.65385 24 7.65385C33.0385 7.65385 40.3462 14.9615 40.3462 24C40.3462 33.0385 33.0385 40.3462 24 40.3462Z" fill="#424242"/>
</svg>
